HIERARCHY
ROOT Hips
{
	OFFSET 0.000000 97.167313 0.000000
	CHANNELS 6 Xposition Yposition Zposition Xrotation Yrotation Zrotation
	JOINT Spine
	{
		OFFSET 0.000000 13.784798 0.064400
		CHANNELS 3 Xrotation Yrotation Zrotation
		JOINT Spine1
		{
			OFFSET 0.000000 12.037903 0.404700
			CHANNELS 3 Xrotation Yrotation Zrotation
			JOINT Spine2
			{
				OFFSET 0.000000 17.795601 0.420200
				CHANNELS 3 Xrotation Yrotation Zrotation
				JOINT Neck
				{
					OFFSET 0.000000 39.131302 11.954600
					CHANNELS 3 Xrotation Yrotation Zrotation
					JOINT Head
					{
						OFFSET 0.000000 14.456192 15.627699
						CHANNELS 3 Xrotation Yrotation Zrotation
						JOINT HeadTop_End
						{
							OFFSET 0.000000 15.703506 7.603401
							CHANNELS 3 Xrotation Yrotation Zrotation
							End Site
							{
								OFFSET 0.000000 17.447403 0.000000
							}
						}
					}
				}
				JOINT LeftShoulder
				{
					OFFSET 17.399500 24.608795 1.168800
					CHANNELS 3 Xrotation Yrotation Zrotation
					JOINT LeftArm
					{
						OFFSET 18.980635 5.765305 1.818600
						CHANNELS 3 Xrotation Yrotation Zrotation
						JOINT LeftForeArm
						{
							OFFSET 49.290169 0.000000 0.000000
							CHANNELS 3 Xrotation Yrotation Zrotation
							JOINT LeftHand
							{
								OFFSET 31.562012 0.000000 0.000000
								CHANNELS 3 Xrotation Yrotation Zrotation
								JOINT LeftHandThumb1
								{
									OFFSET 6.133995 -4.388519 7.076070
									CHANNELS 3 Xrotation Yrotation Zrotation
									JOINT LeftHandThumb2
									{
										OFFSET 6.037666 -3.485840 3.485847
										CHANNELS 3 Xrotation Yrotation Zrotation
										JOINT LeftHandThumb3
										{
											OFFSET 6.496506 -3.750763 3.750761
											CHANNELS 3 Xrotation Yrotation Zrotation
											JOINT LeftHandThumb4
											{
												OFFSET 5.616882 -3.242905 3.242910
												CHANNELS 3 Xrotation Yrotation Zrotation
												End Site
												{
													OFFSET -1.254608 7.132141 0.375429
												}
											}
										}
									}
								}
								JOINT LeftHandPinky1
								{
									OFFSET 18.920792 -0.453171 -11.426712
									CHANNELS 3 Xrotation Yrotation Zrotation
									JOINT LeftHandPinky2
									{
										OFFSET 4.919586 0.000000 0.000000
										CHANNELS 3 Xrotation Yrotation Zrotation
										JOINT LeftHandPinky3
										{
											OFFSET 5.233047 0.000000 0.000000
											CHANNELS 3 Xrotation Yrotation Zrotation
											JOINT LeftHandPinky4
											{
												OFFSET 5.571716 0.000000 0.000000
												CHANNELS 3 Xrotation Yrotation Zrotation
												End Site
												{
													OFFSET -3.459808 4.342407 -0.466164
												}
											}
										}
									}
								}
								JOINT LeftHandRing1
								{
									OFFSET 22.726120 -0.094986 -6.500475
									CHANNELS 3 Xrotation Yrotation Zrotation
									JOINT LeftHandRing2
									{
										OFFSET 6.408615 0.000000 0.000000
										CHANNELS 3 Xrotation Yrotation Zrotation
										JOINT LeftHandRing3
										{
											OFFSET 6.150223 0.000000 0.000000
											CHANNELS 3 Xrotation Yrotation Zrotation
											JOINT LeftHandRing4
											{
												OFFSET 6.145386 0.000000 0.000000
												CHANNELS 3 Xrotation Yrotation Zrotation
												End Site
												{
													OFFSET -3.671402 4.923981 -0.202372
												}
											}
										}
									}
								}
								JOINT LeftHandMiddle1
								{
									OFFSET 23.373947 0.000000 0.000001
									CHANNELS 3 Xrotation Yrotation Zrotation
									JOINT LeftHandMiddle2
									{
										OFFSET 6.996567 0.000000 0.000000
										CHANNELS 3 Xrotation Yrotation Zrotation
										JOINT LeftHandMiddle3
										{
											OFFSET 7.015945 0.000000 0.000000
											CHANNELS 3 Xrotation Yrotation Zrotation
											JOINT LeftHandMiddle4
											{
												OFFSET 7.721573 0.000000 0.000000
												CHANNELS 3 Xrotation Yrotation Zrotation
												End Site
												{
													OFFSET -4.651108 6.158463 0.251582
												}
											}
										}
									}
								}
								JOINT LeftHandIndex1
								{
									OFFSET 21.310577 -0.490082 6.209344
									CHANNELS 3 Xrotation Yrotation Zrotation
									JOINT LeftHandIndex2
									{
										OFFSET 7.536453 0.000000 0.000000
										CHANNELS 3 Xrotation Yrotation Zrotation
										JOINT LeftHandIndex3
										{
											OFFSET 7.512344 0.000000 0.000000
											CHANNELS 3 Xrotation Yrotation Zrotation
											JOINT LeftHandIndex4
											{
												OFFSET 10.212402 0.000000 0.000001
												CHANNELS 3 Xrotation Yrotation Zrotation
												End Site
												{
													OFFSET -5.180801 8.690506 1.388433
												}
											}
										}
									}
								}
							}
						}
					}
				}
				JOINT RightShoulder
				{
					OFFSET -17.399500 24.608795 1.168800
					CHANNELS 3 Xrotation Yrotation Zrotation
					JOINT RightArm
					{
						OFFSET -18.980635 5.765305 1.818600
						CHANNELS 3 Xrotation Yrotation Zrotation
						JOINT RightForeArm
						{
							OFFSET -49.290169 0.000000 0.000000
							CHANNELS 3 Xrotation Yrotation Zrotation
							JOINT RightHand
							{
								OFFSET -31.562012 0.000000 0.000000
								CHANNELS 3 Xrotation Yrotation Zrotation
								JOINT RightHandThumb1
								{
									OFFSET -6.133995 -4.388519 7.076070
									CHANNELS 3 Xrotation Yrotation Zrotation
									JOINT RightHandThumb2
									{
										OFFSET -6.037666 -3.485840 3.485847
										CHANNELS 3 Xrotation Yrotation Zrotation
										JOINT RightHandThumb3
										{
											OFFSET -6.496506 -3.750763 3.750761
											CHANNELS 3 Xrotation Yrotation Zrotation
											JOINT RightHandThumb4
											{
												OFFSET -5.616882 -3.242905 3.242910
												CHANNELS 3 Xrotation Yrotation Zrotation
												End Site
												{
													OFFSET 1.254608 7.132141 0.375429
												}
											}
										}
									}
								}
								JOINT RightHandIndex1
								{
									OFFSET -21.310577 -0.490082 6.209344
									CHANNELS 3 Xrotation Yrotation Zrotation
									JOINT RightHandIndex2
									{
										OFFSET -7.536453 0.000000 0.000000
										CHANNELS 3 Xrotation Yrotation Zrotation
										JOINT RightHandIndex3
										{
											OFFSET -7.512344 0.000000 0.000000
											CHANNELS 3 Xrotation Yrotation Zrotation
											JOINT RightHandIndex4
											{
												OFFSET -10.212402 0.000000 0.000001
												CHANNELS 3 Xrotation Yrotation Zrotation
												End Site
												{
													OFFSET 5.180801 8.690506 1.388433
												}
											}
										}
									}
								}
								JOINT RightHandMiddle1
								{
									OFFSET -23.373947 0.000000 0.000001
									CHANNELS 3 Xrotation Yrotation Zrotation
									JOINT RightHandMiddle2
									{
										OFFSET -6.996567 0.000000 0.000000
										CHANNELS 3 Xrotation Yrotation Zrotation
										JOINT RightHandMiddle3
										{
											OFFSET -7.015945 0.000000 0.000000
											CHANNELS 3 Xrotation Yrotation Zrotation
											JOINT RightHandMiddle4
											{
												OFFSET -7.721573 0.000000 0.000000
												CHANNELS 3 Xrotation Yrotation Zrotation
												End Site
												{
													OFFSET 4.651108 6.158463 0.251582
												}
											}
										}
									}
								}
								JOINT RightHandRing1
								{
									OFFSET -22.726120 -0.094986 -6.500475
									CHANNELS 3 Xrotation Yrotation Zrotation
									JOINT RightHandRing2
									{
										OFFSET -6.408615 0.000000 0.000000
										CHANNELS 3 Xrotation Yrotation Zrotation
										JOINT RightHandRing3
										{
											OFFSET -6.150223 0.000000 0.000000
											CHANNELS 3 Xrotation Yrotation Zrotation
											JOINT RightHandRing4
											{
												OFFSET -6.145386 0.000000 0.000000
												CHANNELS 3 Xrotation Yrotation Zrotation
												End Site
												{
													OFFSET 3.671402 4.923981 -0.202372
												}
											}
										}
									}
								}
								JOINT RightHandPinky1
								{
									OFFSET -18.920792 -0.453171 -11.426712
									CHANNELS 3 Xrotation Yrotation Zrotation
									JOINT RightHandPinky2
									{
										OFFSET -4.919586 0.000000 0.000000
										CHANNELS 3 Xrotation Yrotation Zrotation
										JOINT RightHandPinky3
										{
											OFFSET -5.233047 0.000000 0.000000
											CHANNELS 3 Xrotation Yrotation Zrotation
											JOINT RightHandPinky4
											{
												OFFSET -5.571716 0.000000 0.000000
												CHANNELS 3 Xrotation Yrotation Zrotation
												End Site
												{
													OFFSET 3.459808 4.342407 -0.466164
												}
											}
										}
									}
								}
							}
						}
					}
				}
			}
		}
	}
	JOINT LeftUpLeg
	{
		OFFSET 19.899099 -7.885101 -3.429500
		CHANNELS 3 Xrotation Yrotation Zrotation
		JOINT LeftLeg
		{
			OFFSET 1.745560 -36.997807 10.304700
			CHANNELS 3 Xrotation Yrotation Zrotation
			JOINT LeftFoot
			{
				OFFSET -1.745558 -29.803308 -13.615400
				CHANNELS 3 Xrotation Yrotation Zrotation
				JOINT LeftToeBase
				{
					OFFSET 1.181900 -18.539904 15.226099
					CHANNELS 3 Xrotation Yrotation Zrotation
					JOINT LeftToe_End
					{
						OFFSET -0.863701 1.402801 16.534700
						CHANNELS 3 Xrotation Yrotation Zrotation
						End Site
						{
							OFFSET 0.000000 16.616566 0.000000
						}
					}
				}
			}
		}
	}
	JOINT RightUpLeg
	{
		OFFSET -19.899099 -7.885101 -3.429500
		CHANNELS 3 Xrotation Yrotation Zrotation
		JOINT RightLeg
		{
			OFFSET -1.745560 -36.997807 10.304700
			CHANNELS 3 Xrotation Yrotation Zrotation
			JOINT RightFoot
			{
				OFFSET 1.745558 -29.803308 -13.615400
				CHANNELS 3 Xrotation Yrotation Zrotation
				JOINT RightToeBase
				{
					OFFSET -1.181900 -18.539904 15.226099
					CHANNELS 3 Xrotation Yrotation Zrotation
					JOINT RightToe_End
					{
						OFFSET 0.863701 1.402801 16.534700
						CHANNELS 3 Xrotation Yrotation Zrotation
						End Site
						{
							OFFSET 0.000000 16.616566 0.000000
						}
					}
				}
			}
		}
	}
}
MOTION
Frames: 4
Frame Time: 0.033333
-4.373331 88.218285 17.425613 172.533816 51.351155 -170.315808 8.321264 -0.574595 -3.507045 1.514212 -0.968667 2.462483 1.525970 -0.646436 2.523541 2.869651 24.943728 -12.290521 -11.411709 16.484580 -0.161867 -0.000000 -0.000000 -0.000000 0.104915 -6.537583 -0.871053 -52.671629 4.052677 -43.174681 22.025760 -76.426969 21.785800 -55.209259 8.152656 -3.642998 17.565264 -5.658924 -12.936250 10.856306 26.143478 8.645519 20.933254 51.126893 0.216247 0.000007 0.000003 -0.000002 10.347984 13.789822 -84.983010 0.863300 -0.013939 -64.987153 1.017131 1.383878 -53.711054 -0.000000 -0.000001 0.000001 8.663631 1.787762 -77.481154 -0.163907 1.018928 -60.247753 0.494209 1.728778 -54.557369 0.000001 -0.000001 0.000005 7.568860 0.098259 -65.223095 1.845265 1.383836 -66.352604 0.089829 -0.922200 -44.914607 -0.000001 -0.000000 0.000008 14.367223 0.538557 -56.890602 0.400675 1.158461 -67.497630 2.025028 2.075914 -59.683675 -0.000004 0.000003 0.000002 5.929959 -1.792105 3.978076 -9.999997 -1.891387 59.033550 10.976104 9.838489 -3.053297 0.902850 2.804368 0.104348 15.788508 -2.734487 -17.205918 -2.198305 -31.113574 7.361226 -6.566734 -4.138280 2.407503 0.000003 -0.000003 0.000001 2.377231 -3.658577 8.487825 -2.145978 -2.483248 18.672733 -1.897692 -4.806383 14.174159 -0.000000 -0.000004 -0.000004 -1.985682 -5.685164 13.662672 0.283554 -5.102987 26.988176 -0.674488 -1.216489 16.125721 -0.000001 0.000000 -0.000004 -3.256209 -8.562288 11.770176 4.046106 -4.063173 33.263783 2.102239 -3.159432 15.593498 -0.000002 0.000002 -0.000003 -6.473722 -11.340198 23.261825 10.719440 -2.558806 34.823016 6.410409 -3.072091 15.310012 -0.000001 0.000001 -0.000001 -28.713040 22.763361 21.246149 23.116844 14.586999 -5.586904 4.168537 0.710202 -8.150434 -0.832326 -0.039082 -0.127877 -0.000000 0.000000 -0.000000 -0.922928 -6.241014 -16.636563 25.888191 -6.936738 9.557893 -25.879857 -11.370293 11.613972 0.001890 -0.010529 -0.006670 0.000000 0.000000 0.000000 
-5.082556 88.125412 16.024252 173.790079 48.288324 -171.397751 8.271975 -0.593601 -3.584193 1.460438 -1.020714 2.428478 1.472111 -0.698355 2.489057 2.814905 23.507455 -12.117676 -11.321942 15.660119 0.098789 -0.000000 0.000000 -0.000000 0.103805 -6.571643 -0.795380 -52.330102 3.692663 -43.069585 19.208609 -74.644535 19.223888 -54.611034 8.264410 -2.655204 17.565764 -5.657357 -12.936401 10.857081 26.145491 8.645598 20.933242 51.126906 0.216262 0.000002 -0.000000 -0.000002 10.314079 13.791551 -84.957458 0.862419 -0.014158 -64.949266 1.052927 1.359497 -55.096503 -0.000002 0.000001 -0.000004 8.652704 1.840160 -77.135853 -0.170061 1.017547 -59.834725 0.490433 1.735011 -54.638310 -0.000000 -0.000002 0.000005 7.672976 0.574816 -65.201471 1.841002 1.390476 -66.185564 0.092305 -0.922351 -44.743528 0.000002 -0.000002 0.000006 14.339991 0.789815 -56.672856 0.396234 1.156808 -67.206869 2.015434 2.083400 -59.388358 -0.000000 0.000003 0.000001 5.490105 1.727360 4.018507 -9.371229 -1.641348 58.061471 11.066307 10.783306 -2.744489 0.608529 2.500089 -0.729659 15.788513 -2.734484 -17.205912 -2.198297 -31.113568 7.361244 -6.566758 -4.138284 2.407519 0.000001 -0.000005 0.000001 2.377225 -3.658587 8.487865 -2.145959 -2.483285 18.672817 -1.897672 -4.806331 14.174187 -0.000003 -0.000004 -0.000002 -1.985679 -5.685184 13.662712 0.283585 -5.102979 26.988191 -0.674506 -1.216477 16.125716 -0.000003 0.000003 -0.000008 -3.256199 -8.562248 11.770176 4.046105 -4.063202 33.263855 2.102192 -3.159415 15.593476 -0.000003 0.000000 -0.000002 -6.473716 -11.340166 23.261843 10.719431 -2.558801 34.822972 6.410387 -3.072092 15.310074 0.000001 0.000001 0.000006 -27.367658 22.602317 20.039939 22.609842 15.297961 -5.500601 4.360522 0.818796 -6.799830 -0.601530 0.013305 -0.145106 0.000000 -0.000000 -0.000000 1.705594 -7.226679 -17.209570 24.730829 -8.215156 9.606801 -25.803568 -12.909491 12.839359 0.000748 -0.008497 -0.003128 -0.000000 -0.000001 0.000000 
-5.715546 87.819702 14.466400 174.867077 45.338328 -172.346286 8.284751 -0.572419 -3.540844 1.482891 -1.036334 2.406443 1.494641 -0.713507 2.466790 2.407381 22.181668 -11.761012 -11.038535 14.923132 0.204025 0.000000 0.000000 -0.000000 0.073514 -6.571757 -0.762075 -52.416040 2.920506 -43.346313 17.028077 -72.871835 17.282855 -53.828622 8.518041 -1.408860 17.566010 -5.656697 -12.936491 10.860994 26.156194 8.646132 20.933254 51.126923 0.216232 -0.000002 0.000003 -0.000004 10.280596 13.793301 -84.931749 0.861634 -0.014396 -64.912745 1.046761 1.363694 -54.858256 -0.000000 0.000002 -0.000002 8.633126 1.930108 -76.542009 -0.175126 1.015488 -59.245081 0.484163 1.736027 -54.321843 0.000001 -0.000001 0.000008 7.619823 0.808933 -64.785492 1.827460 1.398802 -65.679099 0.099355 -0.921558 -44.282992 -0.000000 -0.000002 0.000001 14.277810 0.872783 -56.382430 0.391463 1.153662 -66.895952 2.005609 2.089791 -59.079224 -0.000001 0.000005 -0.000001 5.056182 5.248739 4.028694 -8.773521 -1.381716 57.391436 11.120631 11.733129 -2.548650 0.041361 2.486464 -1.391936 15.788506 -2.734484 -17.205919 -2.198328 -31.113547 7.361230 -6.566730 -4.138276 2.407507 0.000002 -0.000001 0.000001 2.377232 -3.658573 8.487829 -2.145942 -2.483264 18.672728 -1.897691 -4.806358 14.174207 0.000001 -0.000003 -0.000001 -1.985662 -5.685178 13.662689 0.283576 -5.102949 26.988116 -0.674511 -1.216461 16.125737 0.000000 0.000001 0.000001 -3.256194 -8.562263 11.770173 4.046131 -4.063195 33.263851 2.102195 -3.159409 15.593489 0.000002 -0.000003 -0.000002 -6.473714 -11.340190 23.261818 10.719420 -2.558797 34.822975 6.410367 -3.072094 15.310040 -0.000003 -0.000001 0.000004 -27.963681 22.792420 18.452314 23.971893 14.187681 -5.376973 3.218758 -0.587024 -5.174939 -0.302157 0.009461 -0.526281 0.000000 -0.000000 -0.000000 4.322721 -8.577042 -17.525565 23.719468 -9.170166 9.244830 -25.844194 -14.463769 14.285417 0.000089 -0.006456 -0.001164 0.000000 -0.000001 0.000000 
-6.233973 87.535736 12.949841 175.666591 42.641042 -173.263526 8.298362 -0.527915 -3.443359 1.502252 -1.028352 2.498027 1.513300 -0.706683 2.558446 1.766150 21.096542 -11.344065 -10.582678 14.325065 0.221536 -0.000000 -0.000000 -0.000000 0.004278 -6.920649 -0.754076 -52.692854 2.433155 -43.545769 15.581388 -71.466639 16.076119 -52.887845 9.030567 0.029566 17.565985 -5.656768 -12.936477 10.850549 26.127699 8.644760 20.933258 51.126896 0.216240 0.000001 0.000002 -0.000001 10.247741 13.795136 -84.906047 0.860915 -0.014627 -64.877692 1.067010 1.349666 -55.643096 0.000001 0.000001 -0.000000 8.659052 1.809799 -77.336156 -0.167706 1.018257 -60.033094 0.491885 1.743137 -54.753494 -0.000000 0.000000 0.000003 7.636397 0.430001 -65.112453 1.839993 1.390952 -66.147254 0.105632 -0.908839 -44.723099 -0.000001 0.000000 0.000004 14.244879 0.479208 -56.413039 0.393767 1.155855 -67.044201 2.010711 2.087893 -59.245143 -0.000001 -0.000002 0.000001 4.634267 8.873997 4.027722 -7.880567 -1.421882 57.210822 11.172755 13.342401 -2.713465 -0.587723 2.408273 -1.710761 15.788512 -2.734488 -17.205918 -2.198300 -31.113564 7.361217 -6.566753 -4.138282 2.407499 -0.000001 0.000000 -0.000003 2.377190 -3.658574 8.487851 -2.145957 -2.483270 18.672740 -1.897681 -4.806364 14.174203 -0.000000 0.000000 -0.000001 -1.985696 -5.685184 13.662690 0.283552 -5.102957 26.988155 -0.674476 -1.216470 16.125691 -0.000000 -0.000002 -0.000004 -3.256214 -8.562253 11.770211 4.046107 -4.063221 33.263834 2.102204 -3.159423 15.593481 0.000001 -0.000001 -0.000003 -6.473741 -11.340168 23.261835 10.719410 -2.558794 34.823006 6.410410 -3.072094 15.310033 0.000002 -0.000002 0.000004 -28.509773 22.564502 17.207811 25.690350 14.023131 -5.118501 1.660951 -2.610305 -4.086519 -0.109719 0.007756 -0.156599 0.000000 0.000000 0.000000 6.772325 -9.874048 -17.180841 22.589480 -10.163912 8.239143 -25.279186 -16.031902 16.071321 -0.388581 0.069107 -0.011313 -0.000000 0.000000 0.000000 
